<?xml version="1.0" standalone="no"?>
<!DOCTYPE svg PUBLIC "-//W3C//DTD SVG 20010904//EN"
 "http://www.w3.org/TR/2001/REC-SVG-20010904/DTD/svg10.dtd">
<svg version="1.0" xmlns="http://www.w3.org/2000/svg"
 width="1024.000000pt" height="1024.000000pt" viewBox="0 0 1024.000000 1024.000000"
 preserveAspectRatio="xMidYMid meet">

<g transform="translate(0.000000,1024.000000) scale(0.100000,-0.100000)"
fill="#000000" stroke="none">
<path d="M3760 8103 c-233 -22 -364 -48 -527 -104 -356 -123 -686 -367 -915
-675 -127 -171 -204 -345 -244 -549 l-17 -84 -64 -51 c-208 -167 -316 -418
-300 -698 14 -243 115 -439 298 -576 65 -49 175 -105 248 -127 33 -10 49 -22
68 -52 32 -51 153 -311 153 -329 0 -8 -13 -22 -30 -31 -52 -31 -201 -179 -260
-258 -105 -141 -187 -327 -226 -511 -25 -117 -25 -333 -1 -412 22 -70 54 -106
97 -106 51 0 86 26 133 98 44 65 156 182 175 182 5 0 12 -46 15 -102 6 -110
44 -279 74 -330 26 -45 65 -70 117 -75 63 -8 81 7 145 120 80 142 106 163 224
187 53 11 113 26 132 34 42 18 179 108 250 164 28 22 61 42 75 44 23 3 26 -2
53 -102 24 -90 45 -149 109 -301 10 -23 6 -33 -44 -100 -113 -150 -197 -346
-233 -544 -25 -132 -18 -391 12 -457 29 -63 74 -87 132 -69 35 10 46 21 82 84
37 63 149 187 169 187 4 0 10 -42 13 -94 8 -116 42 -291 65 -330 25 -42 61
-65 112 -72 59 -8 83 11 143 114 75 130 93 144 226 177 142 35 258 91 381 184
67 51 101 70 115 66 73 -19 317 -65 405 -76 113 -14 447 -19 546 -7 l61 7 6
-104 c6 -124 16 -145 83 -171 60 -23 62 -21 198 128 58 64 110 120 116 123 6
4 10 -28 10 -88 0 -52 7 -134 15 -183 30 -171 53 -212 137 -235 57 -15 99 2
144 59 99 123 171 196 211 214 l42 18 68 -51 c203 -155 513 -240 766 -211 444
49 792 334 911 744 52 180 72 464 45 652 -10 75 -9 78 31 201 78 241 106 511
76 730 -62 444 -169 686 -466 1055 -72 89 -78 101 -99 185 -68 274 -214 527
-436 751 -233 235 -506 409 -823 524 -53 20 -70 32 -111 84 -70 88 -213 223
-311 296 -91 67 -241 146 -385 203 -176 69 -498 144 -695 163 -96 8 -117 18
-220 95 -175 133 -340 219 -560 292 -232 78 -528 119 -720 100z m266 -273
c462 -41 866 -254 1112 -585 73 -98 166 -290 199 -410 25 -89 28 -116 27 -255
0 -125 -4 -172 -22 -243 -170 -685 -828 -1205 -1642 -1298 -125 -14 -360 -6
-470 16 -114 23 -253 71 -377 132 -103 49 -135 73 -100 73 7 0 49 23 94 50
317 195 449 586 328 968 -35 110 -88 195 -180 288 -140 142 -299 211 -506 221
-74 4 -116 10 -117 17 0 6 -3 20 -7 31 -9 28 96 237 174 345 318 445 904 702
1487 650z m1609 -545 c444 -121 723 -323 881 -637 65 -129 85 -209 91 -368 6
-160 -12 -323 -57 -492 -39 -152 -137 -406 -205 -534 -70 -133 -83 -180 -61
-223 38 -73 157 -92 217 -35 16 15 29 31 29 35 0 5 34 77 75 162 190 389 290
848 256 1179 -6 68 -15 138 -18 157 l-6 34 69 -37 c169 -93 400 -261 520 -381
190 -189 335 -483 359 -732 13 -131 -23 -313 -101 -513 -54 -135 -192 -416
-254 -513 -47 -75 -55 -120 -30 -172 31 -63 129 -75 198 -25 61 44 103 106
187 275 89 180 162 361 205 510 17 61 35 114 40 119 21 22 165 -246 219 -409
62 -187 82 -296 88 -490 10 -325 -48 -532 -233 -837 -115 -188 -133 -251 -94
-316 39 -63 118 -71 177 -17 47 43 51 34 28 -78 -35 -174 -110 -321 -220 -432
-173 -175 -373 -253 -625 -242 -128 5 -234 30 -318 76 l-34 18 71 41 c200 119
340 270 444 478 99 196 100 284 7 349 -38 26 -43 27 -81 16 -58 -17 -82 -49
-108 -138 -86 -296 -361 -545 -636 -573 -44 -5 -105 -18 -136 -29 -53 -20
-165 -91 -182 -115 -4 -6 -6 68 -5 166 3 176 3 176 -22 203 -70 77 -181 70
-315 -19 -36 -24 -65 -41 -65 -38 0 4 11 51 25 105 66 258 182 475 328 614
125 119 242 176 423 208 97 17 119 31 136 86 9 32 8 46 -6 84 -10 24 -29 54
-43 65 -58 46 -247 13 -428 -74 -302 -145 -546 -481 -655 -901 l-28 -110 -79
-12 c-99 -15 -345 -16 -471 -2 -324 35 -734 177 -967 335 -221 149 -391 345
-486 563 -61 142 -67 134 63 90 62 -20 172 -52 244 -70 l131 -32 7 -77 c11
-136 50 -225 116 -264 49 -28 78 -10 165 108 41 55 88 117 105 136 l30 34 0
-46 c0 -25 7 -83 16 -128 36 -194 99 -280 201 -280 50 0 81 22 188 133 l90 94
93 22 c428 98 785 412 910 801 34 106 36 133 14 184 -36 81 -116 108 -183 63
-29 -20 -39 -38 -74 -142 -23 -66 -49 -136 -59 -155 -91 -172 -273 -348 -454
-439 -64 -32 -219 -81 -257 -81 -47 0 -78 -14 -163 -72 l-75 -50 6 78 c4 44 9
112 13 151 6 68 5 76 -20 113 -29 44 -90 80 -135 80 -40 0 -124 -38 -201 -90
l-62 -42 7 43 c14 89 79 267 137 381 118 229 255 365 478 476 161 80 170 90
149 177 -18 76 -47 99 -127 100 -46 0 -75 -8 -152 -43 -138 -61 -212 -113
-331 -232 -119 -118 -199 -231 -276 -390 -53 -110 -123 -311 -123 -355 0 -23
-3 -25 -27 -19 -353 85 -461 122 -663 225 -330 169 -605 429 -778 737 -23 39
-40 72 -38 72 2 0 41 -17 87 -39 111 -51 248 -94 389 -123 100 -20 145 -23
335 -23 185 0 240 4 348 23 258 47 447 107 667 213 236 115 415 244 600 435
122 126 185 208 272 354 165 276 238 549 225 835 -9 195 -40 319 -133 530 -29
66 -55 132 -59 147 l-7 26 54 -13 c29 -7 98 -25 153 -40z m-3104 -755 c168
-31 328 -176 389 -353 30 -88 37 -232 15 -317 -48 -185 -187 -333 -366 -390
-69 -21 -80 -22 -154 -12 -257 37 -465 278 -465 539 0 211 112 404 285 489
103 51 190 64 296 44z m144 -1998 c80 -110 281 -318 370 -382 128 -93 129
-104 21 -185 -92 -70 -178 -112 -253 -124 -71 -11 -125 -32 -170 -67 l-33 -25
6 138 c5 102 4 145 -5 162 -16 29 -85 60 -134 61 -38 0 -132 -26 -221 -61
l-48 -19 5 29 c22 108 125 306 219 420 52 64 150 152 166 150 4 0 39 -44 77
-97z m1204 -1489 c109 -96 255 -193 399 -267 l114 -58 -22 -23 c-36 -38 -132
-84 -234 -110 -53 -14 -124 -39 -156 -55 -33 -17 -61 -30 -63 -30 -2 0 0 24 4
53 4 28 8 91 8 139 1 79 -1 89 -25 117 -37 45 -86 55 -174 36 -80 -17 -144
-42 -192 -76 l-31 -22 7 39 c21 118 83 274 151 379 l37 58 46 -53 c25 -29 84
-86 131 -127z"/>
<path d="M3579 6816 c-150 -40 -239 -206 -195 -361 14 -45 29 -69 69 -110 177
-177 458 -64 475 190 6 93 -21 158 -90 220 -76 68 -160 88 -259 61z"/>
<path d="M2399 6351 c-102 -33 -184 -124 -221 -244 -66 -217 66 -457 261 -474
112 -10 205 45 262 157 32 62 39 230 14 316 -45 154 -124 236 -241 248 -27 3
-61 2 -75 -3z"/>
</g>
</svg>
